# xmcd
#
# Track frame offsets:
#	150
#	14342
#	34089
#	52429
#	67240
#	84194
#
# Disc length: 1306 seconds
#
# Revision: 1
# Processed by: cddbd v1.5.2PL0 Copyright (c) Steve Scherf et al.
# Submitted via: audiograbber 1.83.01
#
DISCID=4f051806
DTITLE=Rutledge - Rutledge EP
DYEAR=2015
DGENRE=Country
TTITLE0=July
TTITLE1=Rub A Little Dirt On It
TTITLE2=Millionaire
TTITLE3=Ol' Truck
TTITLE4=I Love My Life
TTITLE5=Great Day To Be A Hokie
EXTD=Rutledge 6 Song EP CD
EXTT0=
EXTT1=
EXTT2=
EXTT3=
EXTT4=
EXTT5=
PLAYORDER=
